<svg xmlns="http://www.w3.org/2000/svg" xmlns:xlink="http://www.w3.org/1999/xlink" version="1.1" id="Layer_1" x="0px" y="0px" viewBox="0 0 810 134.52" style="enable-background:new 0 0 810 134.52;" xml:space="preserve">
<style type="text/css">
	.st0{fill:#FFFFFF;}
</style>
<g>
	<g>
		<path class="st0" d="M775.24,132.61l-58.11,0l34.76-66.31L717.14,0l58.11,0l0.74,1.41c2.89,5.5,5.77,11.01,8.66,16.52    c8.11,15.46,16.5,31.46,24.71,47.16l0.64,1.22L775.24,132.61z M725.83,127.35l46.23,0l32-61.05    c-8.01-15.31-16.17-30.87-24.07-45.93c-2.64-5.04-5.28-10.07-7.92-15.11l-46.23,0l32,61.04L725.83,127.35z"/>
	</g>
	<g>
		<path class="st0" d="M707.51,132.61l-58.11,0l34.76-66.31L649.4,0l58.11,0l0.74,1.41c2.94,5.61,5.88,11.22,8.83,16.83    c8.06,15.36,16.39,31.25,24.55,46.85l0.64,1.22L707.51,132.61z M658.1,127.35l46.23,0l32-61.05    c-7.96-15.2-16.06-30.66-23.91-45.62c-2.7-5.14-5.39-10.28-8.09-15.42l-46.23,0l32,61.04L658.1,127.35z"/>
	</g>
	<g>
		<g>
			<path class="st0" d="M567.44,36.85l-14.88,35.66l29.76,0L567.44,36.85z M581.6,4.24l50.2,118.45c0.6,0.96,0.9,1.97,0.9,3.05     c0,1.67-0.6,3.14-1.79,4.39c-1.2,1.25-2.69,1.88-4.48,1.88l-14.88,0c-1.31,0-2.48-0.33-3.5-0.99c-1.02-0.66-1.76-1.58-2.24-2.78     l-13.09-30.82l-50.74,0l-12.91,30.82c-0.48,1.19-1.23,2.12-2.24,2.78c-1.02,0.66-2.18,0.99-3.5,0.99l-14.88,0     c-1.08,0-2.09-0.27-3.05-0.81c-0.96-0.54-1.7-1.22-2.24-2.06c-0.54-0.84-0.87-1.76-0.99-2.78c-0.12-1.02,0.06-2,0.54-2.96     L553.28,4.24c0.48-1.19,1.23-2.12,2.24-2.78c1.02-0.66,2.18-0.99,3.5-0.99l16.85,0c1.31,0,2.48,0.33,3.5,0.99     C580.38,2.12,581.13,3.04,581.6,4.24L581.6,4.24z M408.77,25.74l0,35.3l34.96,0c10.28,0,17.27-2.93,20.98-8.78     c1.2-2.15,1.79-4.9,1.79-8.24c0-5.61-1.85-10.04-5.56-13.26c-4.06-3.35-9.56-5.02-16.49-5.02L408.77,25.74L408.77,25.74z      M467.22,81.29l26.71,41.04c0.6,0.96,0.93,2.03,0.99,3.23c0.06,1.19-0.18,2.27-0.72,3.23c-0.54,0.96-1.31,1.73-2.33,2.33     c-1.02,0.6-2.06,0.9-3.14,0.9H472.6c-1.08,0-2.09-0.27-3.05-0.81c-0.96-0.54-1.67-1.22-2.15-2.06l-26.89-42.83l-31.73,0v39.42     c0,1.67-0.63,3.14-1.88,4.39c-1.25,1.25-2.72,1.88-4.39,1.88l-13.45,0c-1.67,0-3.14-0.63-4.39-1.88     c-1.26-1.25-1.88-2.72-1.88-4.39l0-118.99c0-1.67,0.63-3.14,1.88-4.39c1.26-1.25,2.72-1.88,4.39-1.88l57.01,0     c13.75,0,24.89,3.91,33.44,11.74c8.55,7.82,12.82,18.43,12.82,31.81c0,8.6-1.88,15.98-5.65,22.13     c-3.77,6.15-9.29,10.78-16.58,13.89c-0.48,0.24-1.25,0.6-2.33,1.08L467.22,81.29z M275.92,25.74v35.3l34.96,0     c10.28,0,17.27-2.93,20.98-8.78c1.2-2.15,1.79-4.9,1.79-8.24c0-5.61-1.85-10.04-5.56-13.26c-4.06-3.35-9.56-5.02-16.49-5.02     L275.92,25.74L275.92,25.74z M334.37,81.29l26.71,41.04c0.6,0.96,0.93,2.03,0.99,3.23c0.06,1.19-0.18,2.27-0.72,3.23     c-0.54,0.96-1.31,1.73-2.33,2.33c-1.02,0.6-2.06,0.9-3.14,0.9l-16.14,0c-1.08,0-2.09-0.27-3.05-0.81     c-0.96-0.54-1.67-1.22-2.15-2.06l-26.89-42.83l-31.73,0l0,39.42c0,1.67-0.63,3.14-1.88,4.39c-1.26,1.25-2.72,1.88-4.39,1.88     l-13.45,0c-1.67,0-3.14-0.63-4.39-1.88s-1.88-2.72-1.88-4.39l0-118.99c0-1.67,0.63-3.14,1.88-4.39c1.26-1.25,2.72-1.88,4.39-1.88     l57.01,0c13.75,0,24.89,3.91,33.44,11.74c8.55,7.82,12.82,18.43,12.82,31.81c0,8.6-1.88,15.98-5.65,22.13     c-3.77,6.15-9.29,10.78-16.58,13.89c-0.48,0.24-1.26,0.6-2.33,1.08L334.37,81.29z M221.96,0.48c1.79,0,3.29,0.63,4.48,1.88     c1.2,1.25,1.79,2.72,1.79,4.39l0,12.9c0,1.67-0.6,3.14-1.79,4.39c-1.2,1.25-2.69,1.88-4.48,1.88l-67.77,0l0,27.42l59.88,0     c1.79,0,3.29,0.63,4.48,1.88c1.2,1.25,1.79,2.72,1.79,4.39v13.08c0,1.67-0.6,3.14-1.79,4.39c-1.2,1.25-2.69,1.88-4.48,1.88     l-59.88,0l0,27.6l67.77,0c1.79,0,3.29,0.63,4.48,1.88c1.2,1.25,1.79,2.72,1.79,4.39v12.9c0,1.67-0.6,3.14-1.79,4.39     c-1.2,1.25-2.69,1.88-4.48,1.88l-87.49,0c-1.67,0-3.14-0.63-4.39-1.88c-1.26-1.25-1.88-2.72-1.88-4.39l0-118.99     c0-1.67,0.63-3.14,1.88-4.39c1.26-1.25,2.72-1.88,4.39-1.88L221.96,0.48z M104.88,0.48c1.67,0,3.14,0.63,4.39,1.88     c1.26,1.25,1.88,2.78,1.88,4.57l0,13.08c0,1.79-0.63,3.32-1.88,4.57c-1.25,1.25-2.72,1.88-4.39,1.88l-36.04,0l0,101.78     c0,1.67-0.63,3.14-1.88,4.39c-1.26,1.25-2.72,1.88-4.39,1.88l-13.81,0c-1.79,0-3.32-0.63-4.57-1.88     c-1.25-1.25-1.88-2.72-1.88-4.39l0-121.32c0-1.79,0.63-3.32,1.88-4.57c1.26-1.25,2.78-1.88,4.57-1.88L104.88,0.48z M24.74,0.48     c1.79,0,3.32,0.63,4.57,1.88c1.26,1.25,1.88,2.78,1.88,4.57l0,13.08c0,1.79-0.63,3.32-1.88,4.57c-1.26,1.25-2.78,1.88-4.57,1.88     l-18.47,0c-1.67,0-3.14-0.63-4.39-1.88C0.63,23.32,0,21.8,0,20.01L0,6.93c0-1.79,0.63-3.32,1.88-4.57     C3.14,1.1,4.6,0.48,6.28,0.48L24.74,0.48z"/>
		</g>
	</g>
</g>
</svg>